<svg width="100" height="100" viewBox="0 0 100 100" fill="none" xmlns="http://www.w3.org/2000/svg">
  <path d="M50 15C30.67 15 15 30.67 15 50C15 69.33 30.67 85 50 85C69.33 85 85 69.33 85 50C85 30.67 69.33 15 50 15ZM50 78C34.54 78 22 65.46 22 50C22 34.54 34.54 22 50 22C65.46 22 78 34.54 78 50C78 65.46 65.46 78 50 78Z" fill="#10B981"/>
  <path d="M50 30C38.95 30 30 38.95 30 50C30 61.05 38.95 70 50 70C61.05 70 70 61.05 70 50C70 38.95 61.05 30 50 30ZM50 63C42.82 63 37 57.18 37 50C37 42.82 42.82 37 50 37C57.18 37 63 42.82 63 50C63 57.18 57.18 63 50 63Z" fill="#334155"/>
  <circle cx="50" cy="50" r="8" fill="#10B981"/>
  <path d="M50 15V22M50 78V85M15 50H22M78 50H85" stroke="#10B981" stroke-width="2" stroke-linecap="round"/>
</svg>
