<?xml version="1.0" encoding="UTF-8"?>
<svg version="1.1" xmlns="http://www.w3.org/2000/svg" width="500" height="500">
<path d="M0 0 C12.86254173 1.1769646 25.66317777 7.56164679 37.5625 12.25 C38.77486328 12.72671143 39.98722656 13.20342285 41.23632812 13.69458008 C49.39590471 16.92217221 57.48259259 20.28881245 65.52929688 23.78710938 C72.27103506 26.71257043 79.06884825 29.47586956 85.90429688 32.17456055 C86.65904297 32.47273682 87.41378906 32.77091309 88.19140625 33.078125 C88.91792389 33.36060593 89.64444153 33.64308685 90.39297485 33.93412781 C92.16995553 34.66063951 93.92651229 35.43871098 95.66159058 36.26028442 C103.09384601 39.68538128 109.1857699 40.70394935 117.31640625 40.6015625 C118.45295151 40.60956879 119.58949677 40.61757507 120.76048279 40.62582397 C124.36152664 40.64868677 127.96142861 40.63953315 131.5625 40.625 C150.99037287 40.6038727 169.78670922 40.84357978 188.4375 46.875 C189.27112061 47.13619629 190.10474121 47.39739258 190.96362305 47.66650391 C205.50542332 52.30891678 222.19694478 58.95620775 234 69 C234 69.66 234 70.32 234 71 C234.556875 71.268125 235.11375 71.53625 235.6875 71.8125 C238.21225334 73.10899496 240.63714484 74.42476323 243 76 C243 76.66 243 77.32 243 78 C243.57234375 78.25910156 244.1446875 78.51820313 244.734375 78.78515625 C253.21060068 83.33016691 258.69696673 91.25024202 264 99 C264.40275146 99.53568604 264.80550293 100.07137207 265.22045898 100.62329102 C268.34682763 104.80774245 270.56453321 108.99579583 272.5625 113.8125 C272.85842041 114.51318604 273.15434082 115.21387207 273.45922852 115.93579102 C274.04434935 117.32519285 274.62609627 118.71602143 275.20410156 120.10839844 C275.88742934 121.73245476 276.60811706 123.34070252 277.3359375 124.9453125 C279.82343534 130.57305583 280.39708403 134.84519761 280 141 C276.2873358 142.23755473 275.51981183 141.65491821 272 140.125 C270.93265625 139.66351563 269.8653125 139.20203125 268.765625 138.7265625 C266.00111533 137.47879733 263.2716302 136.16811747 260.546875 134.8359375 C224.12491487 117.05300934 184.61751765 114.04585672 145.89257812 126.68798828 C131.71103053 131.65996297 116.82871827 138.6878043 106.359375 149.73046875 C105 151 105 151 103 151 C103 151.66 103 152.32 103 153 C101.89163965 153.98151802 100.73554396 154.90927902 99.5625 155.8125 C86.39734608 166.99001967 78.42091612 185.1788572 76 202 C74.409284 223.47291791 77.20680382 241.34436299 88.703125 259.72265625 C90.20536842 262.3606319 90.25607143 264.01249998 90 267 C76.41070466 265.93417291 64.86269421 260.23499969 53 254 C51.66878304 253.32911728 50.3367173 252.65985536 49 252 C49 251.34 49 250.68 49 250 C48.195625 249.814375 47.39125 249.62875 46.5625 249.4375 C41.73747498 247.49056008 37.78522054 244.56651891 34 241 C34 240.34 34 239.68 34 239 C33.45859375 238.7834375 32.9171875 238.566875 32.359375 238.34375 C29.18354656 236.53500003 26.79271919 234.08276201 24.25 231.5 C23.49009766 230.75169922 23.49009766 230.75169922 22.71484375 229.98828125 C19 226.25341139 19 226.25341139 19 224 C18.34 224 17.68 224 17 224 C15.48900423 222.07196939 14.10906658 220.15670463 12.75 218.125 C12.1461145 217.23035034 12.1461145 217.23035034 11.5300293 216.31762695 C10.71869563 215.10768082 9.91160659 213.89487713 9.10888672 212.67919922 C8.17826389 211.26994694 7.23336792 209.8701345 6.28515625 208.47265625 C-6.97932438 187.88984147 -10.9253657 160.77487333 -6 137 C-3.54409526 126.78860663 0.46871244 117.34229118 6.25 108.5625 C12.12676658 96.59908232 9.40826264 84.06217028 7.51171875 71.41601562 C6.96780909 67.78510723 6.45120385 64.15092339 5.9375 60.515625 C5.25675878 55.76162674 4.57488351 51.00787936 3.8671875 46.2578125 C3.65231689 44.80592529 3.65231689 44.80592529 3.43310547 43.32470703 C3.10799749 40.98613596 3.10799749 40.98613596 2 39 C-0.16866179 26.68777325 -2.09714413 13.51166286 -1 1 C-0.67 0.67 -0.34 0.34 0 0 Z " fill="#082862" transform="translate(106,84)"/>
<path d="M0 0 C1.15822266 1.11955078 1.15822266 1.11955078 2.33984375 2.26171875 C3.03980469 2.93589844 3.73976563 3.61007813 4.4609375 4.3046875 C19.18869814 19.60662984 22.64224706 38.28933288 22.27734375 58.76953125 C21.97078665 63.6616717 21.1841325 68.06797807 19.77734375 72.76171875 C16.61680525 83.57231311 18.78252004 94.33099692 20.71484375 105.19921875 C21.18082894 107.93213234 21.63556799 110.66681648 22.0859375 113.40234375 C22.19654007 114.07367844 22.30714264 114.74501312 22.4210968 115.43669128 C23.39308825 121.42380578 24.17145401 127.41470866 24.77734375 133.44921875 C24.9163208 134.72043579 24.9163208 134.72043579 25.05810547 136.01733398 C25.69475051 142.96484929 25.69475051 142.96484929 23.33984375 146.26171875 C14.02256718 145.26996382 5.40431185 143.67227363 -3.56835938 140.90185547 C-7.87802213 139.58300209 -12.20686572 138.33025986 -16.53515625 137.07421875 C-17.41510254 136.8122168 -18.29504883 136.55021484 -19.20166016 136.28027344 C-31.64120449 132.6627832 -43.1306514 132.46540494 -55.78515625 135.26171875 C-87.16507314 141.46849763 -121.82224841 136.15365731 -148.66015625 118.26171875 C-148.66015625 117.60171875 -148.66015625 116.94171875 -148.66015625 116.26171875 C-149.32015625 116.07609375 -149.98015625 115.89046875 -150.66015625 115.69921875 C-154.92920893 113.65363101 -158.40179331 110.68987232 -161.66015625 107.26171875 C-161.66015625 106.60171875 -161.66015625 105.94171875 -161.66015625 105.26171875 C-162.98015625 104.60171875 -164.30015625 103.94171875 -165.66015625 103.26171875 C-165.66015625 102.60171875 -165.66015625 101.94171875 -165.66015625 101.26171875 C-166.32015625 101.26171875 -166.98015625 101.26171875 -167.66015625 101.26171875 C-181.7529715 82.81030084 -186.64960889 63.07876757 -184.66015625 40.26171875 C-183.94781154 35.68279112 -182.54183236 31.49386226 -180.66015625 27.26171875 C-180.35980469 26.54757812 -180.05945313 25.8334375 -179.75 25.09765625 C-178.81956049 23.07566216 -177.78444492 21.1826888 -176.66015625 19.26171875 C-176.16773438 18.4109375 -175.6753125 17.56015625 -175.16796875 16.68359375 C-160.28046727 -7.8773534 -135.90677316 -21.43806256 -108.63891602 -28.24267578 C-69.37818194 -37.48709618 -29.57144752 -27.51592826 0 0 Z M-90.23046875 3.34765625 C-109.42186659 4.52263979 -127.11644373 13.04602455 -140.234375 27 C-148.58298558 36.71987995 -150.59552482 44.80033237 -150.2109375 57.40625 C-149.45517809 67.13545652 -144.11796736 75.1908912 -137.66015625 82.26171875 C-137.00015625 82.26171875 -136.34015625 82.26171875 -135.66015625 82.26171875 C-135.66015625 82.92171875 -135.66015625 83.58171875 -135.66015625 84.26171875 C-133.52209822 85.81721602 -131.39978686 87.24141357 -129.16015625 88.63671875 C-128.51449707 89.04301514 -127.86883789 89.44931152 -127.20361328 89.86791992 C-112.80941964 98.83850301 -99.16050043 102.45292531 -82.22265625 102.38671875 C-81.23716797 102.39058594 -80.25167969 102.39445312 -79.23632812 102.3984375 C-69.84854953 102.38599512 -61.67483146 101.44590978 -52.72265625 98.63671875 C-45.99382632 96.65598838 -40.60420153 95.60779553 -33.66015625 97.26171875 C-31.93151956 97.61846319 -30.20234153 97.97259364 -28.47265625 98.32421875 C-27.65667969 98.49824219 -26.84070313 98.67226563 -26 98.8515625 C-22.82408665 99.40827519 -19.8757278 99.40152621 -16.66015625 99.26171875 C-16.73234375 98.61847656 -16.80453125 97.97523438 -16.87890625 97.3125 C-19.00333695 76.62880667 -19.00333695 76.62880667 -14.6328125 67.48046875 C-11.30007117 59.87807086 -11.43014239 49.13914993 -13.44921875 41.1328125 C-15.02770934 37.09018964 -16.81859285 33.57314697 -19.66015625 30.26171875 C-20.32015625 30.26171875 -20.98015625 30.26171875 -21.66015625 30.26171875 C-22.03140625 29.42640625 -22.03140625 29.42640625 -22.41015625 28.57421875 C-25.00219652 23.77894424 -27.35635143 20.88232578 -32.66015625 19.26171875 C-32.66015625 18.60171875 -32.66015625 17.94171875 -32.66015625 17.26171875 C-35.15762648 15.98570544 -37.65793561 14.71585704 -40.16015625 13.44921875 C-40.85625 13.09279297 -41.55234375 12.73636719 -42.26953125 12.36914062 C-57.83083319 4.51644659 -72.96943725 2.7705397 -90.23046875 3.34765625 Z " fill="#405A8F" transform="translate(381.66015625,245.73828125)"/>
<path d="M0 0 C6.77279188 -0.07723088 13.54546687 -0.12908418 20.31860352 -0.16479492 C22.61389406 -0.17971086 24.909157 -0.20005081 27.2043457 -0.22631836 C44.80835419 -0.42247401 62.24119232 -0.07452926 79 6 C78.01 6.66 77.02 7.32 76 8 C76 7.34 76 6.68 76 6 C75.19175781 6.01160156 74.38351562 6.02320313 73.55078125 6.03515625 C72.48214844 6.04417969 71.41351563 6.05320313 70.3125 6.0625 C68.72888672 6.07990234 68.72888672 6.07990234 67.11328125 6.09765625 C64.27589738 6.00865425 61.7561081 5.64939838 59 5 C59 4.67 59 4.34 59 4 C52.41312121 3.0319493 45.9333676 2.78923192 39.28125 2.68359375 C38.18276733 2.66281265 37.08428467 2.64203156 35.95251465 2.62062073 C32.46840231 2.55561377 28.98421924 2.49646889 25.5 2.4375 C23.12759706 2.39426825 20.75520109 2.35065252 18.3828125 2.30664062 C12.58861487 2.19998294 6.79434801 2.09812885 1 2 C0.67 1.34 0.34 0.68 0 0 Z " fill="#667795" transform="translate(215,125)"/>
<path d="M0 0 C3.90852426 3.32224562 6.81404174 7.81499042 7.25 12.9375 C7.12625 13.9584375 7.12625 13.9584375 7 15 C-2.76895124 14.23380775 -12.14196461 11.12001646 -21 7 C-21 6.67 -21 6.34 -21 6 C-18.36 5.67 -15.72 5.34 -13 5 C-13.33 5.66 -13.66 6.32 -14 7 C-11.69 7.33 -9.38 7.66 -7 8 C-7 8.99 -7 9.98 -7 11 C-3.7 11 -0.4 11 3 11 C3 9.35 3 7.7 3 6 C2.01 6 1.02 6 0 6 C0 4.02 0 2.04 0 0 Z " fill="#48557A" transform="translate(189,336)"/>
<path d="M0 0 C0.66 0 1.32 0 2 0 C1.95359375 0.69738281 1.9071875 1.39476562 1.859375 2.11328125 C1.51431985 12.20614424 3.01540099 21.81652547 4.66503906 31.75512695 C4.84905273 32.89038818 5.03306641 34.02564941 5.22265625 35.1953125 C5.39547119 36.21641113 5.56828613 37.23750977 5.74633789 38.28955078 C5.98797419 40.87150094 5.8164106 42.56348486 5 45 C3.39274365 41.78548731 3.94251815 38.56387464 4 35 C3.34 35 2.68 35 2 35 C1.04738513 30.23692563 0.91666643 25.8333472 1 21 C-0.65 20.67 -2.3 20.34 -4 20 C-3.34 18.35 -2.68 16.7 -2 15 C-1.67 15 -1.34 15 -1 15 C-0.67 10.05 -0.34 5.1 0 0 Z " fill="#7985A6" transform="translate(398,322)"/>
<path d="M0 0 C0 0.33 0 0.66 0 1 C-1.28688721 1.02505615 -2.57377441 1.0501123 -3.8996582 1.07592773 C-8.66880454 1.17001572 -13.43780571 1.27023313 -18.20678711 1.37231445 C-20.27185676 1.41565803 -22.33696212 1.45733352 -24.40209961 1.49731445 C-27.36843635 1.55503083 -30.33459345 1.61872151 -33.30078125 1.68359375 C-34.68841423 1.70866249 -34.68841423 1.70866249 -36.1040802 1.73423767 C-37.39507881 1.7641555 -37.39507881 1.7641555 -38.7121582 1.79467773 C-39.46938675 1.81022202 -40.2266153 1.8257663 -41.00679016 1.84178162 C-43.20924815 1.93632323 -43.20924815 1.93632323 -46 3 C-48.33299825 3.03954234 -50.66708189 3.04401732 -53 3 C-53 2.67 -53 2.34 -53 2 C-35.21039142 -2.2450431 -18.07741976 -2.33035432 0 0 Z " fill="#808CA7" transform="translate(324,216)"/>
<path d="M0 0 C1.41042068 0.00424484 1.41042068 0.00424484 2.84933472 0.00857544 C5.81375577 0.01965272 8.77785981 0.04473299 11.7421875 0.0703125 C13.76822476 0.08035843 15.79426682 0.08948144 17.8203125 0.09765625 C22.75272385 0.11955106 27.68490218 0.15399293 32.6171875 0.1953125 C32.6171875 0.8553125 32.6171875 1.5153125 32.6171875 2.1953125 C31.39612305 2.18483887 30.17505859 2.17436523 28.91699219 2.16357422 C24.38463271 2.12736099 19.85228602 2.10440715 15.31982422 2.08544922 C13.35853932 2.07539467 11.39726939 2.06174917 9.43603516 2.04443359 C6.61617332 2.02016137 3.79650978 2.00882391 0.9765625 2 C-0.33770721 1.98451614 -0.33770721 1.98451614 -1.67852783 1.96871948 C-2.90935089 1.96849289 -2.90935089 1.96849289 -4.16503906 1.96826172 C-5.24425629 1.96159988 -5.24425629 1.96159988 -6.34527588 1.95480347 C-8.72778552 2.23603281 -10.29886789 3.03054219 -12.3828125 4.1953125 C-16.98485332 6.32796556 -16.98485332 6.32796556 -20.3828125 5.1953125 C-20.3828125 4.2053125 -20.3828125 3.2153125 -20.3828125 2.1953125 C-13.50003196 0.56898058 -7.06114328 -0.08199377 0 0 Z " fill="#405483" transform="translate(291.3828125,216.8046875)"/>
<path d="M0 0 C1.66666667 1.66666667 3.33333333 3.33333333 5 5 C5.763125 5.721875 6.52625 6.44375 7.3125 7.1875 C9 9 9 9 9 11 C9.57234375 11.27585937 10.1446875 11.55171875 10.734375 11.8359375 C12.98964267 12.99467848 15.10856378 14.26875706 17.25 15.625 C17.95640625 16.07101562 18.6628125 16.51703125 19.390625 16.9765625 C19.92171875 17.31429688 20.4528125 17.65203125 21 18 C18.50935112 18.68707555 16.62113708 19 14 19 C13.93941406 18.37609375 13.87882813 17.7521875 13.81640625 17.109375 C13.19151441 14.76632566 13.19151441 14.76632566 10.71484375 13.953125 C9.79832031 13.72109375 8.88179687 13.4890625 7.9375 13.25 C7.01839844 13.00765625 6.09929687 12.7653125 5.15234375 12.515625 C4.44207031 12.34546875 3.73179687 12.1753125 3 12 C3 10.35 3 8.7 3 7 C2.34 7 1.68 7 1 7 C0.67 4.69 0.34 2.38 0 0 Z " fill="#647699" transform="translate(237,319)"/>
<path d="M0 0 C1.48828125 1.10009766 1.48828125 1.10009766 3 3 C3.29296875 5.88818359 3.29296875 5.88818359 3.1875 9.3984375 C3.16429687 10.68363281 3.14109375 11.96882813 3.1171875 13.29296875 C3.07999662 14.65369828 3.04092586 16.01437769 3 17.375 C2.70280768 27.43000682 3.22326363 36.29175283 6 46 C5.34 46 4.68 46 4 46 C0.4936792 39.44470458 -0.14902258 34.21789195 -0.09765625 26.85546875 C-0.09553383 25.7007885 -0.09553383 25.7007885 -0.09336853 24.52278137 C-0.08779606 22.07764712 -0.07524871 19.63260632 -0.0625 17.1875 C-0.05748144 15.52408987 -0.05291915 13.8606783 -0.04882812 12.19726562 C-0.03783566 8.13147472 -0.0205901 4.06575317 0 0 Z " fill="#596687" transform="translate(179,279)"/>
<path d="M0 0 C5.48578761 2.45914617 7.59052508 5.49262876 10 11 C10 11.99 10 12.98 10 14 C10.99 14.33 11.98 14.66 13 15 C13 15.66 13 16.32 13 17 C12.34 17 11.68 17 11 17 C11 16.34 11 15.68 11 15 C10.43796875 14.76539063 9.8759375 14.53078125 9.296875 14.2890625 C6.45364109 12.69337 4.51901873 10.71075457 2.25 8.375 C1.45078125 7.55773437 0.6515625 6.74046875 -0.171875 5.8984375 C-0.77515625 5.27195312 -1.3784375 4.64546875 -2 4 C-1.34 3.67 -0.68 3.34 0 3 C0 2.01 0 1.02 0 0 Z " fill="#152D67" transform="translate(129,308)"/>
<path d="M0 0 C0 0.33 0 0.66 0 1 C-1.02738281 1.12117187 -2.05476563 1.24234375 -3.11328125 1.3671875 C-11.13073995 2.33060069 -19.07514761 3.4217455 -27 5 C-26.505 4.54625 -26.01 4.0925 -25.5 3.625 C-23.77390663 2.12364481 -23.77390663 2.12364481 -24 0 C-15.83382806 -0.84388104 -8.15002924 -1.06162705 0 0 Z " fill="#3F4C75" transform="translate(290,202)"/>
<path d="M0 0 C4.81981838 4.1312729 7.7847751 9.03999014 10 15 C9.67 15.66 9.34 16.32 9 17 C5.51668565 13.98112756 4.20842856 11.43090471 3 7 C2.01 7 1.02 7 0 7 C0 6.01 0 5.02 0 4 C-0.99 4.33 -1.98 4.66 -3 5 C-3 4.01 -3 3.02 -3 2 C-2.01 2 -1.02 2 0 2 C0 1.34 0 0.68 0 0 Z " fill="#69759A" transform="translate(389,255)"/>
<path d="M0 0 C2.34545328 2.34545328 2.95508888 3.95985838 3.09765625 7.26171875 C3.08605469 8.06222656 3.07445312 8.86273438 3.0625 9.6875 C3.05347656 10.49574219 3.04445313 11.30398437 3.03515625 12.13671875 C3.02355469 12.75160156 3.01195312 13.36648437 3 14 C-0.70781672 15.23593891 -1.67510253 14.5678132 -5.1875 13.0625 C-6.08855469 12.68222656 -6.98960937 12.30195313 -7.91796875 11.91015625 C-8.60503906 11.60980469 -9.29210937 11.30945313 -10 11 C-6.91190305 9.23537317 -5.76687864 9 -2 9 C-2 8.34 -2 7.68 -2 7 C-1.34 7 -0.68 7 0 7 C0 8.65 0 10.3 0 12 C0.66 12.33 1.32 12.66 2 13 C1.855625 12.39671875 1.71125 11.7934375 1.5625 11.171875 C1.376875 10.37265625 1.19125 9.5734375 1 8.75 C0.814375 7.96109375 0.62875 7.1721875 0.4375 6.359375 C0 4 0 4 0 0 Z " fill="#556486" transform="translate(383,211)"/>
<path d="M0 0 C9.83908078 0.33184084 18.63005352 2.2136397 28 5 C27.01 5.66 26.02 6.32 25 7 C25 6.34 25 5.68 25 5 C24.19175781 5.01160156 23.38351562 5.02320313 22.55078125 5.03515625 C21.48214844 5.04417969 20.41351563 5.05320313 19.3125 5.0625 C17.72888672 5.07990234 17.72888672 5.07990234 16.11328125 5.09765625 C13.27589738 5.00865425 10.7561081 4.64939838 8 4 C8 3.67 8 3.34 8 3 C5.36 2.67 2.72 2.34 0 2 C0 1.34 0 0.68 0 0 Z " fill="#546386" transform="translate(266,126)"/>
<path d="M0 0 C4.06452577 0.67489327 7.67040762 1.92982169 11.5 3.4375 C12.6034375 3.86933594 13.706875 4.30117187 14.84375 4.74609375 C17.56408614 5.82682135 20.28326115 6.91026333 23 8 C23 8.33 23 8.66 23 9 C16.375 11 16.375 11 13 11 C12.67 9.02 12.34 7.04 12 5 C11.05125 5.020625 10.1025 5.04125 9.125 5.0625 C6 5 6 5 4 4 C4 3.34 4 2.68 4 2 C3.01 2.33 2.02 2.66 1 3 C0.67 2.01 0.34 1.02 0 0 Z " fill="#324876" transform="translate(186,115)"/>
<path d="M0 0 C2.76276177 0.52268466 5.3260876 1.10869587 8 2 C11.1002467 2.02976917 14.18636281 1.93374658 17.28515625 1.83984375 C20 2 20 2 22 4 C23.98356483 4.71408334 25.98315437 5.38617742 28 6 C25.15381725 7.42309138 23.28365587 6.34360601 20.33984375 5.55175781 C16.27598356 4.59346023 12.15053787 4.26391369 8 3.875 C6.69482422 3.74544922 6.69482422 3.74544922 5.36328125 3.61328125 C3.24270501 3.40355393 1.12141921 3.20102158 -1 3 C-0.67 2.01 -0.34 1.02 0 0 Z " fill="#7D88A8" transform="translate(299,246)"/>
<path d="M0 0 C0.99 0.33 1.98 0.66 3 1 C1.38405168 3.04119788 -0.2856382 5.04072937 -2 7 C-2.66 7 -3.32 7 -4 7 C-4 7.66 -4 8.32 -4 9 C-5.75 10.5078125 -5.75 10.5078125 -8 12.125 C-8.7425 12.66382813 -9.485 13.20265625 -10.25 13.7578125 C-10.8275 14.16773438 -11.405 14.57765625 -12 15 C-12.15625 10.2265625 -12.15625 10.2265625 -10.75 8.1875 C-9 7 -9 7 -5 7 C-4.67 6.01 -4.34 5.02 -4 4 C-3.34 4 -2.68 4 -2 4 C-2 3.34 -2 2.68 -2 2 C-1.34 2 -0.68 2 0 2 C0 1.34 0 0.68 0 0 Z " fill="#2B3A65" transform="translate(213,228)"/>
<path d="M0 0 C0.66 0 1.32 0 2 0 C3.125 4.75 3.125 4.75 2 7 C2.99 7 3.98 7 5 7 C5 8.65 5 10.3 5 12 C-1.625 13.125 -1.625 13.125 -5 12 C-4.67 11.34 -4.34 10.68 -4 10 C-2.68 10 -1.36 10 0 10 C0 6.7 0 3.4 0 0 Z " fill="#0A2456" transform="translate(187,335)"/>
<path d="M0 0 C0.33 0 0.66 0 1 0 C1.33 5.61 1.66 11.22 2 17 C2.33 17 2.66 17 3 17 C3 18.98 3 20.96 3 23 C1.02 23.66 -0.96 24.32 -3 25 C-2.690625 23.845 -2.38125 22.69 -2.0625 21.5 C-0.46539691 14.44329628 -0.33589323 7.20402585 0 0 Z " fill="#68749A" transform="translate(369,290)"/>
<path d="M0 0 C0.33 0 0.66 0 1 0 C0.91621094 1.02480469 0.83242188 2.04960937 0.74609375 3.10546875 C0.64287202 4.46611879 0.54002735 5.82679746 0.4375 7.1875 C0.35338867 8.19780273 0.35338867 8.19780273 0.26757812 9.22851562 C-0.01168366 13.04509339 0.16197473 16.28126285 1 20 C0.5625 23.3125 0.5625 23.3125 0 26 C-0.33 26 -0.66 26 -1 26 C-2.61349102 17.32748578 -3.16898247 8.3295389 0 0 Z " fill="#919BB1" transform="translate(365,315)"/>
<path d="M0 0 C1.65 0 3.3 0 5 0 C5.33 0.99 5.66 1.98 6 3 C4.68 3.33 3.36 3.66 2 4 C2.33 9.94 2.66 15.88 3 22 C2.34 22 1.68 22 1 22 C0.00137301 14.63512596 -0.10331031 7.42686315 0 0 Z " fill="#0E2150" transform="translate(106,86)"/>
<path d="M0 0 C4.95 0.33 9.9 0.66 15 1 C15 1.33 15 1.66 15 2 C14.06994141 2.03867188 14.06994141 2.03867188 13.12109375 2.078125 C4.73021387 2.61553215 -2.9668324 4.66918889 -11 7 C-11 6.34 -11 5.68 -11 5 C-9.68 5 -8.36 5 -7 5 C-7 4.34 -7 3.68 -7 3 C-6.030625 2.87625 -5.06125 2.7525 -4.0625 2.625 C-2.5465625 2.315625 -2.5465625 2.315625 -1 2 C-0.67 1.34 -0.34 0.68 0 0 Z " fill="#7D8AA8" transform="translate(279,248)"/>
<path d="M0 0 C0.66 0.33 1.32 0.66 2 1 C2.33 1.99 2.66 2.98 3 4 C2.01 5.485 2.01 5.485 1 7 C1 6.34 1 5.68 1 5 C-0.94074861 5.27617533 -0.94074861 5.27617533 -3 6 C-3.99 7.485 -3.99 7.485 -5 9 C-7.625 9.6875 -7.625 9.6875 -10 10 C-3.84965831 2.51708428 -3.84965831 2.51708428 0 0 Z " fill="#5D6B91" transform="translate(229,237)"/>
<path d="M0 0 C2.14453125 0.26953125 2.14453125 0.26953125 4.8125 0.8125 C5.68519531 0.98394531 6.55789062 1.15539062 7.45703125 1.33203125 C10 2 10 2 14 4 C11.03 4 8.06 4 5 4 C5 3.34 5 2.68 5 2 C3.35 2 1.7 2 0 2 C0 6.29 0 10.58 0 15 C-0.33 15 -0.66 15 -1 15 C-1.02685412 12.68756208 -1.04632841 10.3750373 -1.0625 8.0625 C-1.07410156 6.77472656 -1.08570312 5.48695312 -1.09765625 4.16015625 C-1 1 -1 1 0 0 Z " fill="#7A8AA1" transform="translate(106,84)"/>
<path d="M0 0 C0.93585938 -0.00515625 1.87171875 -0.0103125 2.8359375 -0.015625 C5.76829762 0.26364739 7.95904925 1.02850984 10.625 2.25 C10.625 2.58 10.625 2.91 10.625 3.25 C4.355 2.92 -1.915 2.59 -8.375 2.25 C-5.04598317 0.03065545 -3.88706363 -0.02129898 0 0 Z " fill="#6A7599" transform="translate(344.375,375.75)"/>
<path d="M0 0 C1.30517578 0.14888672 1.30517578 0.14888672 2.63671875 0.30078125 C5.82694742 0.70627739 9.00816707 1.14118847 12.1875 1.625 C12.1875 1.955 12.1875 2.285 12.1875 2.625 C9.43723583 2.67904449 6.68803797 2.71869306 3.9375 2.75 C3.16019531 2.76675781 2.38289063 2.78351563 1.58203125 2.80078125 C-5.53681144 2.86162606 -5.53681144 2.86162606 -8.8125 0.625 C-5.68394887 -0.33873759 -3.2415791 -0.37775882 0 0 Z " fill="#8691AD" transform="translate(342.8125,341.375)"/>
<path d="M0 0 C0.33 0.66 0.66 1.32 1 2 C2.31454221 2.70299431 3.65171818 3.36410822 5 4 C6.42643452 4.85898429 7.84328886 5.73408294 9.25 6.625 C9.95640625 7.07101562 10.6628125 7.51703125 11.390625 7.9765625 C11.92171875 8.31429688 12.4528125 8.65203125 13 9 C10.50935112 9.68707555 8.62113708 10 6 10 C5.938125 9.38125 5.87625 8.7625 5.8125 8.125 C5.171081 5.72238859 5.171081 5.72238859 2.4375 4.75 C1.633125 4.5025 0.82875 4.255 0 4 C0 2.68 0 1.36 0 0 Z " fill="#6F7E9F" transform="translate(245,328)"/>
<path d="M0 0 C1.31611677 0.95336021 2.62778961 1.91285774 3.9375 2.875 C4.66839844 3.40867188 5.39929688 3.94234375 6.15234375 4.4921875 C8 6 8 6 9 8 C6.69 7.34 4.38 6.68 2 6 C2.33 6.99 2.66 7.98 3 9 C2.01 8.67 1.02 8.34 0 8 C-0.79953138 4.71303767 -1.09658936 3.28976808 0 0 Z " fill="#65749A" transform="translate(371,237)"/>
<path d="M0 0 C3.96 0.33 7.92 0.66 12 1 C12 1.66 12 2.32 12 3 C12.556875 2.7525 13.11375 2.505 13.6875 2.25 C16 2 16 2 18.75 3.9375 C19.86375 4.9584375 19.86375 4.9584375 21 6 C16.01155691 5.3900874 11.39844654 4.36525565 6.5625 2.9375 C5.32628906 2.57527344 4.09007812 2.21304687 2.81640625 1.83984375 C1.88699219 1.56269531 0.95757812 1.28554688 0 1 C0 0.67 0 0.34 0 0 Z " fill="#707B9F" transform="translate(355,379)"/>
<path d="M0 0 C0.33 0 0.66 0 1 0 C1 1.98 1 3.96 1 6 C1.66 6 2.32 6 3 6 C3.66 11.61 4.32 17.22 5 23 C3 21 3 21 2.8046875 19.0546875 C2.86979167 17.03645833 2.93489583 15.01822917 3 13 C2.34 13 1.68 13 1 13 C0.67 8.71 0.34 4.42 0 0 Z " fill="#6E7B9C" transform="translate(399,344)"/>
<path d="M0 0 C1.98 0 3.96 0 6 0 C6.33 0.99 6.66 1.98 7 3 C7.99 2.34 8.98 1.68 10 1 C9.34 2.98 8.68 4.96 8 7 C5.03 6.505 5.03 6.505 2 6 C2 5.01 2 4.02 2 3 C1.34 2.67 0.68 2.34 0 2 C0 1.34 0 0.68 0 0 Z " fill="#65729D" transform="translate(397,385)"/>
<path d="M0 0 C3.16753702 2.11169135 3.95400354 3.3454121 5.6875 6.625 C6.34298828 7.85089844 6.34298828 7.85089844 7.01171875 9.1015625 C7.33785156 9.72804688 7.66398438 10.35453125 8 11 C4.50116255 9.41987986 3.69563342 8.39126684 2 5 C-0.0335948 3.73195434 -0.0335948 3.73195434 -2 3 C-1.34 2.67 -0.68 2.34 0 2 C0 1.34 0 0.68 0 0 Z " fill="#6D7C9C" transform="translate(218,346)"/>
<path d="M0 0 C0.99 0.33 1.98 0.66 3 1 C3.0580476 4.27075883 3.09361165 7.54138524 3.125 10.8125 C3.14175781 11.74126953 3.15851563 12.67003906 3.17578125 13.62695312 C3.18222656 14.51962891 3.18867188 15.41230469 3.1953125 16.33203125 C3.20578613 17.15421143 3.21625977 17.9763916 3.22705078 18.82348633 C3 21 3 21 1 24 C0.67 16.08 0.34 8.16 0 0 Z " fill="#3E507D" transform="translate(369,286)"/>
<path d="M0 0 C0.99 0 1.98 0 3 0 C3.20496094 0.56589844 3.40992187 1.13179688 3.62109375 1.71484375 C3.89050781 2.44832031 4.15992187 3.18179687 4.4375 3.9375 C4.83775391 5.03384766 4.83775391 5.03384766 5.24609375 6.15234375 C5.85386948 7.98305678 5.85386948 7.98305678 7 9 C7.04063832 10.66617115 7.042721 12.33388095 7 14 C3.94998169 10.33997803 0 4.92148529 0 0 Z " fill="#4E5D82" transform="translate(106,278)"/>
<path d="M0 0 C4.61513112 1.31860889 8.09897612 3.21355437 12 6 C8.69538587 7.10153804 8.01331168 6.95317786 4.875 5.8125 C4.17117188 5.57144531 3.46734375 5.33039063 2.7421875 5.08203125 C1 4 1 4 0.2578125 1.88671875 C0.17273438 1.26410156 0.08765625 0.64148438 0 0 Z " fill="#707C9D" transform="translate(354,227)"/>
<path d="M0 0 C0.33 0 0.66 0 1 0 C1.125 5.75 1.125 5.75 0 8 C-0.66 8 -1.32 8 -2 8 C-2 9.98 -2 11.96 -2 14 C-3.32 14.33 -4.64 14.66 -6 15 C-4 10 -2 5 0 0 Z " fill="#566688" transform="translate(115,185)"/>
<path d="M0 0 C5.44567686 1.02862785 10.11817117 2.24614784 15 5 C12 7 12 7 9.8125 6.625 C9.214375 6.41875 8.61625 6.2125 8 6 C8 5.34 8 4.68 8 4 C5.69 3.67 3.38 3.34 1 3 C0.67 2.01 0.34 1.02 0 0 Z " fill="#617090" transform="translate(301,134)"/>
<path d="M0 0 C4.75 0.75 4.75 0.75 7 3 C6.625 5.625 6.625 5.625 6 8 C3.69 7.34 1.38 6.68 -1 6 C-0.01 4.68 0.98 3.36 2 2 C1.34 1.34 0.68 0.68 0 0 Z " fill="#2B4577" transform="translate(120,88)"/>
<path d="M0 0 C2.86724686 0.57344937 3.8614515 0.8614515 6 3 C6.99 3.66 7.98 4.32 9 5 C9 5.66 9 6.32 9 7 C9.66 7.33 10.32 7.66 11 8 C11 8.99 11 9.98 11 11 C9 11 9 11 7.4921875 9.5390625 C6.95851563 8.90742188 6.42484375 8.27578125 5.875 7.625 C5.06675781 6.68527344 5.06675781 6.68527344 4.2421875 5.7265625 C3 4 3 4 3 2 C2.01 1.67 1.02 1.34 0 1 C0 0.67 0 0.34 0 0 Z " fill="#7A85A1" transform="translate(351,265)"/>
<path d="M0 0 C0 2.95274099 -0.43891831 4.49058403 -1.5 7.1875 C-1.7784375 7.90292969 -2.056875 8.61835938 -2.34375 9.35546875 C-2.5603125 9.89816406 -2.776875 10.44085938 -3 11 C-4.32 11 -5.64 11 -7 11 C-5.22054913 6.95579349 -2.60470327 3.53921513 0 0 Z " fill="#7483A1" transform="translate(216,249)"/>
<path d="M0 0 C0.68309575 2.12518678 1.12717332 3.53369784 0.53125 5.71875 C-0.17777762 8.76339802 -0.09372019 11.62798148 -0.0625 14.75 C-0.05347656 15.92046875 -0.04445313 17.0909375 -0.03515625 18.296875 C-0.02355469 19.18890625 -0.01195313 20.0809375 0 21 C-0.66 21.33 -1.32 21.66 -2 22 C-2 15.4 -2 8.8 -2 2 C-1.34 2 -0.68 2 0 2 C0 1.34 0 0.68 0 0 Z " fill="#0A2053" transform="translate(102,223)"/>
<path d="M0 0 C3.3 0.33 6.6 0.66 10 1 C10 1.99 10 2.98 10 4 C3.375 4.25 3.375 4.25 0 2 C0 1.34 0 0.68 0 0 Z " fill="#415183" transform="translate(391,386)"/>
<path d="M0 0 C1.32 0.33 2.64 0.66 4 1 C2.02 3.97 0.04 6.94 -2 10 C-2.66 9.67 -3.32 9.34 -4 9 C-4 8.34 -4 7.68 -4 7 C-3.34 7 -2.68 7 -2 7 C-2.33 6.01 -2.66 5.02 -3 4 C-2.505 3.525625 -2.01 3.05125 -1.5 2.5625 C0.11542197 1.24076302 0.11542197 1.24076302 0 0 Z " fill="#4D5D86" transform="translate(192,250)"/>
<path d="M0 0 C7.57142857 1.85714286 7.57142857 1.85714286 10 5 C9 6 9 6 6.6875 6.375 C4 6 4 6 1.6875 3.5625 C0 1 0 1 0 0 Z " fill="#707C99" transform="translate(344,222)"/>
<path d="M0 0 C4.8274799 1.41292095 8.7162359 3.42974154 13 6 C9.86650268 7.04449911 9.01031744 6.93423645 6 6 C6 5.34 6 4.68 6 4 C5.01 4 4.02 4 3 4 C3 3.34 3 2.68 3 2 C2.01 2.33 1.02 2.66 0 3 C0 2.01 0 1.02 0 0 Z " fill="#636F8B" transform="translate(316,140)"/>
<path d="M0 0 C5.06998019 0.65419099 9.41990777 2.8546409 14 5 C13.34 5.66 12.68 6.32 12 7 C12 6.34 12 5.68 12 5 C11.05125 5.020625 10.1025 5.04125 9.125 5.0625 C6 5 6 5 4 4 C4 3.34 4 2.68 4 2 C3.01 2.33 2.02 2.66 1 3 C0.67 2.01 0.34 1.02 0 0 Z " fill="#4F5F84" transform="translate(186,115)"/>
<path d="M0 0 C-0.99 0 -1.98 0 -3 0 C-3.33 0.99 -3.66 1.98 -4 3 C-7.63 3.33 -11.26 3.66 -15 4 C-12.60939149 2.40626099 -10.69171821 1.34702924 -8.0625 0.3125 C-7.39347656 0.04050781 -6.72445313 -0.23148438 -6.03515625 -0.51171875 C-3.67169662 -1.0787676 -2.2807201 -0.76024003 0 0 Z " fill="#7780A2" transform="translate(268,221)"/>
<path d="M0 0 C0.33 0.66 0.66 1.32 1 2 C2.65 2 4.3 2 6 2 C6 1.34 6 0.68 6 0 C7.98 0 9.96 0 12 0 C8.98029212 1.56629708 5.91349586 2.87625164 2.75 4.125 C1.85796875 4.47820312 0.9659375 4.83140625 0.046875 5.1953125 C-0.62859375 5.46085938 -1.3040625 5.72640625 -2 6 C-1.34 4.02 -0.68 2.04 0 0 Z " fill="#546287" transform="translate(240,210)"/>
<path d="M0 0 C3.34944548 5.02416822 3.09834146 9.09951257 3 15 C1.07047026 11.14094051 -0.12483821 8.73867465 -0.0625 4.375 C-0.05347656 3.55773437 -0.04445313 2.74046875 -0.03515625 1.8984375 C-0.02355469 1.27195312 -0.01195312 0.64546875 0 0 Z " fill="#5F6A92" transform="translate(403,369)"/>
<path d="M0 0 C2.5 0.25 2.5 0.25 4.5 2.25 C6.48356483 2.96408334 8.48315437 3.63617742 10.5 4.25 C7.42478317 5.78760842 5.15324882 4.61599236 1.875 3.8125 C0.68648438 3.52503906 -0.50203125 3.23757812 -1.7265625 2.94140625 C-2.64179688 2.71324219 -3.55703125 2.48507813 -4.5 2.25 C-2.5 0.25 -2.5 0.25 0 0 Z " fill="#727B99" transform="translate(316.5,247.75)"/>
<path d="M0 0 C0.99 0.33 1.98 0.66 3 1 C1.38405168 3.04119788 -0.2856382 5.04072937 -2 7 C-2.66 7 -3.32 7 -4 7 C-4.33 7.66 -4.66 8.32 -5 9 C-4.67 7.35 -4.34 5.7 -4 4 C-3.34 4 -2.68 4 -2 4 C-2 3.34 -2 2.68 -2 2 C-1.34 2 -0.68 2 0 2 C0 1.34 0 0.68 0 0 Z " fill="#4C5A7B" transform="translate(213,228)"/>
<path d="M0 0 C2.97 0.495 2.97 0.495 6 1 C3.51047079 3.66735273 1.36591866 5.55746343 -2 7 C-2 5.35 -2 3.7 -2 2 C-1.34 2 -0.68 2 0 2 C0 1.34 0 0.68 0 0 Z " fill="#495C80" transform="translate(220,221)"/>
<path d="M0 0 C4.62 0 9.24 0 14 0 C14.33 0.99 14.66 1.98 15 3 C9.99109914 2.38487182 4.99367864 1.7282448 0 1 C0 0.67 0 0.34 0 0 Z " fill="#616C8C" transform="translate(321,203)"/>
<path d="M0 0 C2.97 0.99 5.94 1.98 9 3 C8.01 3.66 7.02 4.32 6 5 C5.67 4.67 5.34 4.34 5 4 C4.34 4.66 3.68 5.32 3 6 C2.01 6 1.02 6 0 6 C0.33 5.34 0.66 4.68 1 4 C0.67 3.67 0.34 3.34 0 3 C0 2.01 0 1.02 0 0 Z " fill="#374F78" transform="translate(177,111)"/>
<path d="M0 0 C-1.5625 1.5625 -1.5625 1.5625 -4 3 C-7.75 2.6875 -7.75 2.6875 -11 2 C-11.33 2.66 -11.66 3.32 -12 4 C-12.66 3.34 -13.32 2.68 -14 2 C-12.42085985 1.46658816 -10.83645613 0.94874237 -9.25 0.4375 C-8.36828125 0.14746094 -7.4865625 -0.14257812 -6.578125 -0.44140625 C-3.92165684 -1.01697435 -2.52968894 -0.89248371 0 0 Z " fill="#73819F" transform="translate(334,344)"/>
<path d="M0 0 C2.52940738 3.13164723 4.44920018 6.27808042 6 10 C5.6875 12.375 5.6875 12.375 5 14 C4.34 12.02 3.68 10.04 3 8 C2.34 8 1.68 8 1 8 C1 6.35 1 4.7 1 3 C0.34 2.67 -0.32 2.34 -1 2 C-0.67 1.34 -0.34 0.68 0 0 Z " fill="#636F8E" transform="translate(377,197)"/>
<path d="M0 0 C1.85772162 0.08984301 3.71247985 0.24611861 5.5625 0.4375 C7.08037109 0.59025391 7.08037109 0.59025391 8.62890625 0.74609375 C9.80259766 0.87177734 9.80259766 0.87177734 11 1 C11 1.33 11 1.66 11 2 C5.61509359 2.91657981 0.45769811 3.11138159 -5 3 C-4.360625 2.690625 -3.72125 2.38125 -3.0625 2.0625 C-1.06389179 1.1654837 -1.06389179 1.1654837 0 0 Z " fill="#6A7794" transform="translate(279,201)"/>
<path d="M0 0 C1.5843317 0.08768248 3.16753567 0.19587329 4.75 0.3125 C6.07257813 0.39951172 6.07257813 0.39951172 7.421875 0.48828125 C10.32303774 1.0641181 11.79225607 2.07596148 14 4 C8.57960425 4.40652968 4.92984325 3.03993514 0 1 C0 0.67 0 0.34 0 0 Z " fill="#75819A" transform="translate(259,375)"/>
<path d="M0 0 C-1 2 -1 2 -4.4375 3.1875 C-8 4 -8 4 -10 3 C-10 2.34 -10 1.68 -10 1 C-6.59437148 0.22157062 -3.49234244 -0.09978121 0 0 Z " fill="#42527D" transform="translate(322,347)"/>
<path d="M0 0 C0.96392528 2.99887865 1.35886391 5.08814875 0 8 C-2.5625 9.25 -2.5625 9.25 -5 10 C-3.66511872 6.40608886 -2.03977277 3.24509304 0 0 Z " fill="#71819D" transform="translate(208,260)"/>
<path d="M0 0 C3.24299151 2.38957269 5.50902342 4.2047869 7 8 C5.68 8 4.36 8 3 8 C3 7.01 3 6.02 3 5 C2.01 4.67 1.02 4.34 0 4 C0 2.68 0 1.36 0 0 Z " fill="#5B6B8A" transform="translate(357,168)"/>
<path d="M0 0 C0.66 0 1.32 0 2 0 C2 1.32 2 2.64 2 4 C2.99 3.67 3.98 3.34 5 3 C5 3.99 5 4.98 5 6 C4.34 6 3.68 6 3 6 C2.67 7.32 2.34 8.64 2 10 C0.68373308 6.38026598 0 3.90432869 0 0 Z " fill="#6D7C9E" transform="translate(366,280)"/>
<path d="M0 0 C0.33 0.66 0.66 1.32 1 2 C1.66 2.33 2.32 2.66 3 3 C2.67 4.32 2.34 5.64 2 7 C2.66 7 3.32 7 4 7 C3.67 9.31 3.34 11.62 3 14 C2.67 14 2.34 14 2 14 C-0.29612756 4.58997722 -0.29612756 4.58997722 0 0 Z " fill="#626F92" transform="translate(100,255)"/>
<path d="M0 0 C3.3 1.98 6.6 3.96 10 6 C9.67 6.66 9.34 7.32 9 8 C4.125 6.25 4.125 6.25 3 4 C0.97536745 3.34786708 0.97536745 3.34786708 -1 3 C-0.67 2.01 -0.34 1.02 0 0 Z " fill="#7782A3" transform="translate(330,147)"/>
<path d="M0 0 C1.5 1.3125 1.5 1.3125 3 3 C3 3.99 3 4.98 3 6 C1.68 6.33 0.36 6.66 -1 7 C-1.04254356 5.00045254 -1.04080783 2.99958364 -1 1 C-0.67 0.67 -0.34 0.34 0 0 Z " fill="#415584" transform="translate(235,318)"/>
<path d="M0 0 C1.98 0.99 1.98 0.99 4 2 C4 2.99 4 3.98 4 5 C4.99 5.33 5.98 5.66 7 6 C7 6.66 7 7.32 7 8 C6.34 8 5.68 8 5 8 C5 7.34 5 6.68 5 6 C4.360625 5.7525 3.72125 5.505 3.0625 5.25 C1 4 1 4 0.25 1.875 C0.1675 1.25625 0.085 0.6375 0 0 Z " fill="#40507B" transform="translate(135,317)"/>
<path d="M0 0 C2 2 2 2 2.125 4.625 C2.08375 5.40875 2.0425 6.1925 2 7 C-0.64 6.67 -3.28 6.34 -6 6 C-6 5.67 -6 5.34 -6 5 C-4.02 5 -2.04 5 0 5 C0 3.35 0 1.7 0 0 Z " fill="#838D9E" transform="translate(194,344)"/>
<path d="M0 0 C2.375 0.3125 2.375 0.3125 5 1 C5.66 1.99 6.32 2.98 7 4 C5.68 4.33 4.36 4.66 3 5 C3 4.34 3 3.68 3 3 C2.01 2.67 1.02 2.34 0 2 C0 1.34 0 0.68 0 0 Z " fill="#566588" transform="translate(377,245)"/>
<path d="M0 0 C-1.9626228 2.04795423 -3.4277307 2.94976638 -6.26953125 3.19921875 C-8.51954383 3.18858877 -10.75385562 3.12958525 -13 3 C-13 2.67 -13 2.34 -13 2 C-8.49646738 0.24252386 -4.82360189 -0.19294408 0 0 Z " fill="#091D4D" transform="translate(267,204)"/>
<path d="M0 0 C0.99 0.33 1.98 0.66 3 1 C2.67 4.63 2.34 8.26 2 12 C1.67 12 1.34 12 1 12 C0.67 8.04 0.34 4.08 0 0 Z " fill="#656F92" transform="translate(113,146)"/>
<path d="M0 0 C3.72433382 1.2125738 7.37802806 2.50859979 11 4 C9.02 4.99 9.02 4.99 7 6 C7 5.34 7 4.68 7 4 C6.01 4.33 5.02 4.66 4 5 C2.64567325 3.68799596 1.31266518 2.35368596 0 1 C0 0.67 0 0.34 0 0 Z " fill="#617091" transform="translate(166,106)"/>
<path d="M0 0 C1.0625 2.375 1.0625 2.375 2 5 C1.67 5.66 1.34 6.32 1 7 C-0.65 5.02 -2.3 3.04 -4 1 C-2 0 -2 0 0 0 Z " fill="#3B4B73" transform="translate(131,310)"/>
<path d="M0 0 C1.32 0.33 2.64 0.66 4 1 C3.67 1.99 3.34 2.98 3 4 C3.99 4.33 4.98 4.66 6 5 C5.67 6.32 5.34 7.64 5 9 C4.16396622 7.68921847 3.3312426 6.37632511 2.5 5.0625 C2.0359375 4.33160156 1.571875 3.60070312 1.09375 2.84765625 C0 1 0 1 0 0 Z " fill="#546283" transform="translate(113,292)"/>
<path d="M0 0 C-5.75 5 -5.75 5 -8 5 C-7.8125 3.125 -7.8125 3.125 -7 1 C-2.66666667 -1.33333333 -2.66666667 -1.33333333 0 0 Z " fill="#7F89AD" transform="translate(255,262)"/>
<path d="M0 0 C0.99 0.33 1.98 0.66 3 1 C3 1.99 3 2.98 3 4 C0.5 5.6875 0.5 5.6875 -2 7 C-1.34 4.69 -0.68 2.38 0 0 Z " fill="#405483" transform="translate(210,259)"/>
<path d="M0 0 C0.66 0.33 1.32 0.66 2 1 C-0.06756277 3.7972908 -1.14440371 4.02692273 -4.6875 4.6875 C-5.780625 4.790625 -6.87375 4.89375 -8 5 C-6.35197949 1.70395897 -3.32254422 1.22409524 0 0 Z " fill="#8692AF" transform="translate(249,226)"/>
<path d="M0 0 C3 3.75 3 3.75 3 6 C2.34 6 1.68 6 1 6 C0.67 6.66 0.34 7.32 0 8 C-0.66 7.01 -1.32 6.02 -2 5 C-1.125 2.3125 -1.125 2.3125 0 0 Z " fill="#3E517F" transform="translate(186,329)"/>
<path d="M0 0 C0.33 0 0.66 0 1 0 C2.11658501 4.68965706 1.80619523 7.53763531 0 12 C-0.33 12 -0.66 12 -1 12 C-1.08159574 7.83861737 -0.98248524 4.0527516 0 0 Z " fill="#6A7798" transform="translate(199,278)"/>
<path d="M0 0 C0.99 1.32 1.98 2.64 3 4 C-0.20062687 5.60031344 -2.72271806 4.03173691 -6 3 C-6 2.67 -6 2.34 -6 2 C-4.02 1.34 -2.04 0.68 0 0 Z " fill="#536286" transform="translate(342,204)"/>
<path d="" fill="#FFFFFF" transform="translate(0,0)"/>
<path d="" fill="#FFFFFF" transform="translate(0,0)"/>
<path d="" fill="#FFFFFF" transform="translate(0,0)"/>
<path d="" fill="#FFFFFF" transform="translate(0,0)"/>
<path d="" fill="#FFFFFF" transform="translate(0,0)"/>
<path d="" fill="#FFFFFF" transform="translate(0,0)"/>
<path d="" fill="#FFFFFF" transform="translate(0,0)"/>
<path d="" fill="#FFFFFF" transform="translate(0,0)"/>
<path d="" fill="#FFFFFF" transform="translate(0,0)"/>
<path d="" fill="#FFFFFF" transform="translate(0,0)"/>
<path d="" fill="#FFFFFF" transform="translate(0,0)"/>
<path d="" fill="#FFFFFF" transform="translate(0,0)"/>
<path d="" fill="#FFFFFF" transform="translate(0,0)"/>
<path d="" fill="#FFFFFF" transform="translate(0,0)"/>
<path d="" fill="#FFFFFF" transform="translate(0,0)"/>
<path d="" fill="#FFFFFF" transform="translate(0,0)"/>
<path d="" fill="#FFFFFF" transform="translate(0,0)"/>
<path d="" fill="#FFFFFF" transform="translate(0,0)"/>
<path d="" fill="#FFFFFF" transform="translate(0,0)"/>
<path d="" fill="#FFFFFF" transform="translate(0,0)"/>
<path d="" fill="#FFFFFF" transform="translate(0,0)"/>
<path d="" fill="#FFFFFF" transform="translate(0,0)"/>
<path d="" fill="#FFFFFF" transform="translate(0,0)"/>
<path d="" fill="#FFFFFF" transform="translate(0,0)"/>
<path d="" fill="#FFFFFF" transform="translate(0,0)"/>
<path d="" fill="#FFFFFF" transform="translate(0,0)"/>
<path d="" fill="#FFFFFF" transform="translate(0,0)"/>
<path d="" fill="#FFFFFF" transform="translate(0,0)"/>
<path d="" fill="#FFFFFF" transform="translate(0,0)"/>
<path d="" fill="#FFFFFF" transform="translate(0,0)"/>
<path d="" fill="#FFFFFF" transform="translate(0,0)"/>
<path d="" fill="#FFFFFF" transform="translate(0,0)"/>
<path d="" fill="#FFFFFF" transform="translate(0,0)"/>
<path d="" fill="#FFFFFF" transform="translate(0,0)"/>
<path d="" fill="#FFFFFF" transform="translate(0,0)"/>
<path d="" fill="#FFFFFF" transform="translate(0,0)"/>
<path d="" fill="#FFFFFF" transform="translate(0,0)"/>
<path d="" fill="#FFFFFF" transform="translate(0,0)"/>
<path d="" fill="#FFFFFF" transform="translate(0,0)"/>
<path d="" fill="#FFFFFF" transform="translate(0,0)"/>
<path d="" fill="#FFFFFF" transform="translate(0,0)"/>
<path d="" fill="#FFFFFF" transform="translate(0,0)"/>
<path d="" fill="#FFFFFF" transform="translate(0,0)"/>
<path d="" fill="#FFFFFF" transform="translate(0,0)"/>
<path d="" fill="#FFFFFF" transform="translate(0,0)"/>
<path d="" fill="#FFFFFF" transform="translate(0,0)"/>
<path d="" fill="#FFFFFF" transform="translate(0,0)"/>
<path d="" fill="#FFFFFF" transform="translate(0,0)"/>
<path d="" fill="#FFFFFF" transform="translate(0,0)"/>
<path d="" fill="#FFFFFF" transform="translate(0,0)"/>
<path d="" fill="#FFFFFF" transform="translate(0,0)"/>
<path d="" fill="#FFFFFF" transform="translate(0,0)"/>
<path d="" fill="#FFFFFF" transform="translate(0,0)"/>
<path d="" fill="#FFFFFF" transform="translate(0,0)"/>
</svg>
